<svg width="17" height="12" viewBox="0 0 17 12" fill="none" xmlns="http://www.w3.org/2000/svg">
<path d="M15.7226 5.25857C16.0925 5.70143 16.0925 6.29929 15.7226 6.74143C14.5578 8.13357 11.763 11 8.50012 11C5.23723 11 2.44248 8.13357 1.27761 6.74143C1.09767 6.52938 1 6.26851 1 6C1 5.73149 1.09767 5.47062 1.27761 5.25857C2.44248 3.86643 5.23723 1 8.50012 1C11.763 1 14.5578 3.86643 15.7226 5.25857V5.25857Z" stroke="white" stroke-width="0.833333" stroke-linecap="round" stroke-linejoin="round"/>
<path d="M8.50012 8.14289C9.79283 8.14289 10.8408 7.1835 10.8408 6.00004C10.8408 4.81657 9.79283 3.85718 8.50012 3.85718C7.20741 3.85718 6.15945 4.81657 6.15945 6.00004C6.15945 7.1835 7.20741 8.14289 8.50012 8.14289Z" stroke="white" stroke-width="0.833333" stroke-linecap="round" stroke-linejoin="round"/>
</svg>
